<svg xmlns="http://www.w3.org/2000/svg" xmlns:xlink="http://www.w3.org/1999/xlink" width="155.341" height="141.509" viewBox="0 0 155.341 141.509"><defs><clipPath id="a"><rect width="155.341" height="141.509" fill="none"/></clipPath></defs><g opacity="0.25" clip-path="url(#a)"><g transform="translate(-3855 -802)"><circle cx="2.5" cy="2.5" r="2.5" transform="translate(3855 802)" fill="#fff"/></g><g transform="translate(-3836 -802)"><circle cx="2.5" cy="2.5" r="2.5" transform="translate(3855 802)" fill="#fff"/></g><g transform="translate(-3817 -802)"><circle cx="2.5" cy="2.5" r="2.5" transform="translate(3855 802)" fill="#fff"/></g><g transform="translate(-3798 -802)"><circle cx="2.5" cy="2.5" r="2.5" transform="translate(3855 802)" fill="#fff"/></g><g transform="translate(-3779 -802)"><circle cx="2.5" cy="2.5" r="2.5" transform="translate(3855 802)" fill="#fff"/></g><g transform="translate(-3760 -802)"><circle cx="2.5" cy="2.5" r="2.5" transform="translate(3855 802)" fill="#fff"/></g><g transform="translate(-3741 -802)"><circle cx="2.5" cy="2.5" r="2.5" transform="translate(3855 802)" fill="#fff"/></g><g transform="translate(-3722 -802)"><circle cx="2.5" cy="2.5" r="2.5" transform="translate(3855 802)" fill="#fff"/></g><g transform="translate(-3703 -802)"><circle cx="2.5" cy="2.5" r="2.5" transform="translate(3855 802)" fill="#fff"/></g><g transform="translate(-3855 -782)"><circle cx="2.5" cy="2.5" r="2.5" transform="translate(3855 802)" fill="#fff"/></g><g transform="translate(-3836 -782)"><circle cx="2.5" cy="2.5" r="2.5" transform="translate(3855 802)" fill="#fff"/></g><g transform="translate(-3817 -782)"><circle cx="2.5" cy="2.5" r="2.5" transform="translate(3855 802)" fill="#fff"/></g><g transform="translate(-3798 -782)"><circle cx="2.5" cy="2.5" r="2.5" transform="translate(3855 802)" fill="#fff"/></g><g transform="translate(-3779 -782)"><circle cx="2.5" cy="2.5" r="2.5" transform="translate(3855 802)" fill="#fff"/></g><g transform="translate(-3760 -782)"><circle cx="2.5" cy="2.5" r="2.5" transform="translate(3855 802)" fill="#fff"/></g><g transform="translate(-3741 -782)"><circle cx="2.5" cy="2.5" r="2.5" transform="translate(3855 802)" fill="#fff"/></g><g transform="translate(-3722 -782)"><circle cx="2.5" cy="2.5" r="2.5" transform="translate(3855 802)" fill="#fff"/></g><g transform="translate(-3703 -782)"><circle cx="2.5" cy="2.5" r="2.5" transform="translate(3855 802)" fill="#fff"/></g><g transform="translate(-3855 -762)"><circle cx="2.5" cy="2.5" r="2.5" transform="translate(3855 802)" fill="#fff"/></g><g transform="translate(-3836 -762)"><circle cx="2.5" cy="2.5" r="2.5" transform="translate(3855 802)" fill="#fff"/></g><g transform="translate(-3817 -762)"><circle cx="2.5" cy="2.5" r="2.5" transform="translate(3855 802)" fill="#fff"/></g><g transform="translate(-3798 -762)"><circle cx="2.5" cy="2.5" r="2.5" transform="translate(3855 802)" fill="#fff"/></g><g transform="translate(-3779 -762)"><circle cx="2.5" cy="2.5" r="2.5" transform="translate(3855 802)" fill="#fff"/></g><g transform="translate(-3760 -762)"><circle cx="2.5" cy="2.5" r="2.5" transform="translate(3855 802)" fill="#fff"/></g><g transform="translate(-3741 -762)"><circle cx="2.5" cy="2.5" r="2.5" transform="translate(3855 802)" fill="#fff"/></g><g transform="translate(-3722 -762)"><circle cx="2.5" cy="2.5" r="2.5" transform="translate(3855 802)" fill="#fff"/></g><g transform="translate(-3703 -762)"><circle cx="2.5" cy="2.5" r="2.5" transform="translate(3855 802)" fill="#fff"/></g><g transform="translate(-3855 -742)"><circle cx="2.5" cy="2.5" r="2.5" transform="translate(3855 802)" fill="#fff"/></g><g transform="translate(-3836 -742)"><circle cx="2.5" cy="2.5" r="2.5" transform="translate(3855 802)" fill="#fff"/></g><g transform="translate(-3817 -742)"><circle cx="2.5" cy="2.5" r="2.5" transform="translate(3855 802)" fill="#fff"/></g><g transform="translate(-3798 -742)"><circle cx="2.5" cy="2.5" r="2.5" transform="translate(3855 802)" fill="#fff"/></g><g transform="translate(-3779 -742)"><circle cx="2.5" cy="2.5" r="2.5" transform="translate(3855 802)" fill="#fff"/></g><g transform="translate(-3760 -742)"><circle cx="2.5" cy="2.5" r="2.5" transform="translate(3855 802)" fill="#fff"/></g><g transform="translate(-3741 -742)"><circle cx="2.5" cy="2.5" r="2.5" transform="translate(3855 802)" fill="#fff"/></g><g transform="translate(-3722 -742)"><circle cx="2.5" cy="2.5" r="2.5" transform="translate(3855 802)" fill="#fff"/></g><g transform="translate(-3703 -742)"><circle cx="2.5" cy="2.5" r="2.5" transform="translate(3855 802)" fill="#fff"/></g><g transform="translate(-3855 -722)"><circle cx="2.5" cy="2.5" r="2.5" transform="translate(3855 802)" fill="#fff"/></g><g transform="translate(-3836 -722)"><circle cx="2.5" cy="2.5" r="2.5" transform="translate(3855 802)" fill="#fff"/></g><g transform="translate(-3817 -722)"><circle cx="2.5" cy="2.5" r="2.5" transform="translate(3855 802)" fill="#fff"/></g><g transform="translate(-3798 -722)"><circle cx="2.5" cy="2.5" r="2.5" transform="translate(3855 802)" fill="#fff"/></g><g transform="translate(-3779 -722)"><circle cx="2.5" cy="2.5" r="2.5" transform="translate(3855 802)" fill="#fff"/></g><g transform="translate(-3760 -722)"><circle cx="2.5" cy="2.5" r="2.5" transform="translate(3855 802)" fill="#fff"/></g><g transform="translate(-3741 -722)"><circle cx="2.5" cy="2.5" r="2.5" transform="translate(3855 802)" fill="#fff"/></g><g transform="translate(-3722 -722)"><circle cx="2.5" cy="2.5" r="2.5" transform="translate(3855 802)" fill="#fff"/></g><g transform="translate(-3703 -722)"><circle cx="2.5" cy="2.5" r="2.5" transform="translate(3855 802)" fill="#fff"/></g><g transform="translate(-3855 -702)"><circle cx="2.5" cy="2.5" r="2.5" transform="translate(3855 802)" fill="#fff"/></g><g transform="translate(-3836 -702)"><circle cx="2.5" cy="2.5" r="2.5" transform="translate(3855 802)" fill="#fff"/></g><g transform="translate(-3817 -702)"><circle cx="2.5" cy="2.5" r="2.5" transform="translate(3855 802)" fill="#fff"/></g><g transform="translate(-3798 -702)"><circle cx="2.5" cy="2.5" r="2.5" transform="translate(3855 802)" fill="#fff"/></g><g transform="translate(-3779 -702)"><circle cx="2.5" cy="2.5" r="2.5" transform="translate(3855 802)" fill="#fff"/></g><g transform="translate(-3760 -702)"><circle cx="2.5" cy="2.5" r="2.5" transform="translate(3855 802)" fill="#fff"/></g><g transform="translate(-3741 -702)"><circle cx="2.5" cy="2.5" r="2.5" transform="translate(3855 802)" fill="#fff"/></g><g transform="translate(-3722 -702)"><circle cx="2.5" cy="2.5" r="2.5" transform="translate(3855 802)" fill="#fff"/></g><g transform="translate(-3703 -702)"><circle cx="2.5" cy="2.5" r="2.5" transform="translate(3855 802)" fill="#fff"/></g><g transform="translate(-3855 -682)"><circle cx="2.5" cy="2.5" r="2.5" transform="translate(3855 802)" fill="#fff"/></g><g transform="translate(-3836 -682)"><circle cx="2.5" cy="2.5" r="2.5" transform="translate(3855 802)" fill="#fff"/></g><g transform="translate(-3817 -682)"><circle cx="2.5" cy="2.5" r="2.5" transform="translate(3855 802)" fill="#fff"/></g><g transform="translate(-3798 -682)"><circle cx="2.5" cy="2.5" r="2.5" transform="translate(3855 802)" fill="#fff"/></g><g transform="translate(-3779 -682)"><circle cx="2.5" cy="2.5" r="2.5" transform="translate(3855 802)" fill="#fff"/></g><g transform="translate(-3760 -682)"><circle cx="2.5" cy="2.5" r="2.5" transform="translate(3855 802)" fill="#fff"/></g><g transform="translate(-3741 -682)"><circle cx="2.5" cy="2.5" r="2.5" transform="translate(3855 802)" fill="#fff"/></g><g transform="translate(-3722 -682)"><circle cx="2.5" cy="2.5" r="2.5" transform="translate(3855 802)" fill="#fff"/></g><g transform="translate(-3703 -682)"><circle cx="2.5" cy="2.5" r="2.5" transform="translate(3855 802)" fill="#fff"/></g><g transform="translate(-3855 -662)"><circle cx="2.5" cy="2.5" r="2.5" transform="translate(3855 802)" fill="#fff"/></g><g transform="translate(-3836 -662)"><circle cx="2.5" cy="2.5" r="2.5" transform="translate(3855 802)" fill="#fff"/></g><g transform="translate(-3817 -662)"><circle cx="2.5" cy="2.5" r="2.5" transform="translate(3855 802)" fill="#fff"/></g><g transform="translate(-3798 -662)"><circle cx="2.5" cy="2.5" r="2.5" transform="translate(3855 802)" fill="#fff"/></g><g transform="translate(-3779 -662)"><circle cx="2.5" cy="2.5" r="2.5" transform="translate(3855 802)" fill="#fff"/></g><g transform="translate(-3760 -662)"><circle cx="2.5" cy="2.5" r="2.5" transform="translate(3855 802)" fill="#fff"/></g><g transform="translate(-3741 -662)"><circle cx="2.5" cy="2.5" r="2.5" transform="translate(3855 802)" fill="#fff"/></g><g transform="translate(-3722 -662)"><circle cx="2.5" cy="2.5" r="2.5" transform="translate(3855 802)" fill="#fff"/></g><g transform="translate(-3703 -662)"><circle cx="2.5" cy="2.5" r="2.5" transform="translate(3855 802)" fill="#fff"/></g></g></svg>